<?xml version="1.0" encoding="utf-8"?>
<!-- Generator: Adobe Illustrator 27.2.0, SVG Export Plug-In . SVG Version: 6.00 Build 0)  -->
<svg version="1.1" id="Layer_1" xmlns="http://www.w3.org/2000/svg" xmlns:xlink="http://www.w3.org/1999/xlink" x="0px" y="0px"
	 viewBox="0 0 386 386" style="enable-background:new 0 0 386 386;" xml:space="preserve">
<style type="text/css">
	.st0{fill:none;}
	.st1{fill:#D9D9D9;}
</style>
<g>
	<rect class="st0" width="386" height="386"/>
	<path class="st1" d="M193,303c-60.65,0-110-49.35-110-110c0-60.65,49.34-110,110-110c60.66,0,110,49.35,110,110
		C303,253.65,253.65,303,193,303z M193,89.58c-57.02,0-103.41,46.39-103.41,103.42c0,57.02,46.39,103.42,103.41,103.42
		c57.03,0,103.42-46.39,103.42-103.42C296.42,135.98,250.02,89.58,193,89.58z M270.26,254.77c0.84-0.06,1.47-0.78,1.41-1.62
		c-0.06-0.83-0.79-1.46-1.62-1.41c-0.16,0.01-16.29,1.12-24.44,0.64c-7.52-0.45-11.28-11.62-11.87-14.58
		c-0.74-3.7-8.25-57.02-8.32-57.56c-0.11-0.77-0.79-1.33-1.57-1.3c-0.78,0.04-1.41,0.66-1.44,1.44
		c-1.19,25.24-3.61,65.95-5.17,71.37c-4.38,0.95-11.51,0.94-14.62-7.72c-1.09-3.03-6.35-54.07-9.62-87.63
		c-0.08-0.8-0.75-1.39-1.57-1.37c-0.8,0.03-1.44,0.68-1.46,1.49c-0.68,35.32-2.24,88.54-3.82,95.67c-0.61-0.07-1.32-0.38-2.04-0.88
		c-1.79-1.26-4.05-4.13-4.53-8.08c-0.55-4.57-8.63-105.45-8.71-106.46c-0.06-0.8-0.77-1.43-1.55-1.39c-0.8,0.02-1.45,0.66-1.48,1.47
		l-2.44,80.18l-6.28-97.48c-0.05-0.81-0.77-1.46-1.55-1.42c-0.81,0.02-1.47,0.68-1.48,1.49l-2.25,132.52h-37.17
		c-0.84,0-1.52,0.68-1.52,1.52c0,0.84,0.68,1.52,1.52,1.52h38.66c0.83,0,1.5-0.66,1.52-1.49l1.64-96.75l5.94,92.19
		c0.05,0.8,0.72,1.42,1.51,1.42c0.01,0,0.02,0,0.03,0c0.81-0.01,1.47-0.66,1.49-1.47l2.58-84.74c2.46,30.57,6.15,76.15,6.53,79.27
		c0.5,4.13,2.72,8.04,5.8,10.2c1.74,1.22,3.56,1.69,5.14,1.33c1.34-0.31,1.95-0.45,2.89-16.8c0.46-8.09,0.92-19.32,1.37-33.39
		c0.26-8.12,0.48-16.27,0.67-23.5c2.55,25.29,6.27,60.68,7.33,63.63c2.93,8.16,9.98,11.7,18.85,9.48c1.5-0.38,2.5-0.62,4.84-37.9
		c0.45-7.14,0.86-14.32,1.18-20.36c2.3,16.25,5.64,39.62,6.14,42.12c0.85,4.24,5.36,16.45,14.66,17.01
		c1.55,0.09,3.35,0.13,5.27,0.13C259.12,255.54,269.72,254.81,270.26,254.77z"/>
</g>
</svg>
